<svg width="142" height="63" viewBox="0 0 142 63" fill="none" xmlns="http://www.w3.org/2000/svg">
<g clip-path="url(#clip0_158_2076)">
<rect width="142" height="63" rx="10" fill="url(#paint0_linear_158_2076)"/>
<path opacity="0.2" d="M79 63.5C79 63.5 85.2797 15.9946 101 38C116.72 60.0054 123 58.9946 129 42C136.417 20.9925 163.758 39.0806 166.5 24" stroke="url(#paint1_linear_158_2076)" stroke-width="4" stroke-linecap="round" stroke-linejoin="round"/>
</g>
<path d="M15.72 28.64H21.94C21.34 29.38 20.5 30.66 20.5 32.24C20.5 34.04 21.78 34.96 23.64 34.96C24.34 34.96 25.1 34.8 25.78 34.5C25.92 34.84 25.96 35.16 25.96 35.44C25.96 36.62 25.24 37.84 23.26 37.84C20.5 37.84 19.02 35.6 18.82 32.42C18.78 31.78 18.42 31.42 17.8 31.42C17.08 31.42 16.66 31.88 16.7 32.64C17 36.7 19.04 39.84 23.26 39.84C26.86 39.84 28.04 37.5 28.04 35.4C28.04 34.44 27.6 32.44 26.36 32.44C25.72 32.44 25.02 32.98 23.94 32.98C23.1 32.98 22.74 32.64 22.74 32C22.74 31 23.68 29.54 24.72 28.64H24.78C25.54 31.06 27.62 32.24 30.08 32.24C29.8 32.78 29.38 34.02 29.38 36.78V39.6C29.38 40.24 29.78 40.64 30.42 40.64H30.46C31.1 40.64 31.48 40.24 31.48 39.6V36.84C31.48 33.3 32.26 32.8 32.26 31.78C32.26 31 31.76 30.36 30.94 30.36C30.56 30.36 30.34 30.4 29.94 30.4C28.64 30.38 27.54 29.92 27.1 28.64H32.98C33.54 28.64 33.88 28.3 33.88 27.74V27.7C33.88 27.14 33.54 26.8 32.98 26.8H15.72C15.16 26.8 14.82 27.14 14.82 27.7V27.74C14.82 28.3 15.16 28.64 15.72 28.64ZM22.6084 22.94C22.6084 24.38 23.6084 25.26 25.7884 25.26C26.8484 25.26 27.3284 25.16 28.0684 25.16C28.8884 25.16 29.3084 25.34 29.3084 26.24V26.88C29.3084 27.6 29.7284 28.02 30.4484 28.02H30.4884C31.2484 28.02 31.6284 27.6 31.6284 26.88V26.1C31.6284 24.2 30.6684 23.4 28.6084 23.4C27.6284 23.4 27.0484 23.52 26.0884 23.52C25.1884 23.52 24.7484 23.34 24.7484 22.88C24.7484 22.22 25.6884 21.88 27.5284 21.88C31.6684 21.88 34.6684 23.24 34.6684 26.68V26.8H32.8684C32.3284 26.8 31.9884 27.14 31.9884 27.7V27.74C31.9884 28.3 32.3284 28.64 32.8684 28.64H34.6684V39.06C34.6684 39.76 35.1084 40.2 35.8084 40.2H35.8484C36.5684 40.2 36.9884 39.76 36.9884 39.06V28.64H38.3684C38.9084 28.64 39.2484 28.3 39.2484 27.74V27.7C39.2484 27.14 38.9084 26.8 38.3684 26.8H36.9884V26.68C36.9884 22.12 32.4684 20.04 27.5684 20.04C24.8284 20.04 22.6084 20.76 22.6084 22.94ZM38.22 28.64H45.56V29.62C45.54 29.62 42.66 30.4 39.86 32.38C39.38 32.72 39.12 33.22 39.12 33.88C39.12 34.52 39.38 34.98 39.92 35.28L45.56 38.46V39.08C45.56 39.76 45.96 40.18 46.64 40.18H46.68C47.36 40.18 47.76 39.76 47.76 39.08V28.64H49.12C49.68 28.64 50.02 28.3 50.02 27.74V27.7C50.02 27.14 49.68 26.8 49.12 26.8H38.22C37.66 26.8 37.32 27.14 37.32 27.7V27.74C37.32 28.3 37.66 28.64 38.22 28.64ZM41.58 33.8C43.1 32.78 44.72 32.06 45.56 31.76V36.04L41.58 33.8ZM49.0012 28.64H57.2613V30.66C57.2613 32.34 57.4013 33.54 57.5413 34.3L57.4813 34.32C56.4213 32.44 54.7213 31.58 52.8413 31.58C50.8813 31.58 49.7213 32.7 49.7213 34.16C49.7213 35.22 50.4213 35.84 51.3413 35.84C52.2212 35.84 52.7813 35.28 52.7813 34.44C52.7813 34.12 52.6613 33.82 52.4813 33.58C52.6013 33.58 52.7413 33.56 52.8813 33.56C55.0213 33.56 56.6013 35.68 57.3413 39.04C57.5213 39.78 57.8613 40.12 58.5413 40.12C59.2213 40.12 59.5813 39.72 59.5813 39.02V28.64H60.9613C61.5213 28.64 61.8413 28.3 61.8413 27.74V27.7C61.8413 27.14 61.5213 26.8 60.9613 26.8H49.0012C48.4412 26.8 48.1012 27.14 48.1012 27.7V27.74C48.1012 28.3 48.4412 28.64 49.0012 28.64ZM50.5577 22.94C50.5577 24.38 51.5577 25.26 53.7377 25.26C54.7977 25.26 55.2777 25.16 56.0177 25.16C56.8377 25.16 57.2577 25.34 57.2577 26.24V26.88C57.2577 27.6 57.6777 28.02 58.3977 28.02H58.4377C59.1977 28.02 59.5777 27.6 59.5777 26.88V26.1C59.5777 24.2 58.6177 23.4 56.5577 23.4C55.5777 23.4 54.9977 23.52 54.0377 23.52C53.1377 23.52 52.6977 23.34 52.6977 22.88C52.6977 22.22 53.6377 21.88 55.4777 21.88C59.6177 21.88 62.6177 23.24 62.6177 26.68V26.8H60.8177C60.2777 26.8 59.9377 27.14 59.9377 27.7V27.74C59.9377 28.3 60.2777 28.64 60.8177 28.64H62.6177V39.06C62.6177 39.76 63.0577 40.2 63.7577 40.2H63.7977C64.5177 40.2 64.9377 39.76 64.9377 39.06V28.64H66.3177C66.8577 28.64 67.1977 28.3 67.1977 27.74V27.7C67.1977 27.14 66.8577 26.8 66.3177 26.8H64.9377V26.68C64.9377 22.12 60.4177 20.04 55.5177 20.04C52.7777 20.04 50.5577 20.76 50.5577 22.94Z" fill="white"/>
<defs>
<linearGradient id="paint0_linear_158_2076" x1="0" y1="0" x2="46.7077" y2="105.278" gradientUnits="userSpaceOnUse">
<stop stop-color="#868CFF"/>
<stop offset="1" stop-color="#4318FF"/>
</linearGradient>
<linearGradient id="paint1_linear_158_2076" x1="75.5" y1="68.5" x2="147.578" y2="5.08563" gradientUnits="userSpaceOnUse">
<stop stop-color="white"/>
<stop offset="1" stop-color="white" stop-opacity="0"/>
</linearGradient>
<clipPath id="clip0_158_2076">
<rect width="142" height="63" rx="10" fill="white"/>
</clipPath>
</defs>
</svg>
