<svg width="142" height="63" viewBox="0 0 142 63" fill="none" xmlns="http://www.w3.org/2000/svg">
<g clip-path="url(#clip0_158_2082)">
<rect width="142" height="63" rx="10" fill="url(#paint0_linear_158_2082)"/>
<path d="M79 63.5C79 63.5 85.2797 15.9946 101 38C116.72 60.0054 123 58.9946 129 42C136.417 20.9925 163.758 39.0806 166.5 24" stroke="url(#paint1_linear_158_2082)" stroke-width="4" stroke-linecap="round" stroke-linejoin="round"/>
</g>
<path d="M19.8 28.7C20.32 28.7 20.72 28.46 21.24 28.46C21.88 28.46 22.32 28.74 22.32 29.38C22.32 30.02 21.86 30.92 20.68 31.96C20.42 32.22 20.28 32.48 20.28 32.78C20.28 33.38 20.84 33.86 21.42 33.86C21.76 33.86 22.04 33.68 22.3 33.46C24 32.02 24.5 30.48 24.5 29.28C24.5 27.62 23.28 26.58 21.62 26.58C21.48 26.58 21.26 26.6 21.02 26.64L20.98 26.56C21.46 25.92 22.34 25.6 23.18 25.6C25.02 25.6 26.2 26.88 26.2 29.26V36.06C26.2 36.76 26.64 37.2 27.34 37.2H27.38C28.1 37.2 28.52 36.76 28.52 36.06V25.64H29.9C30.46 25.64 30.8 25.3 30.8 24.74V24.7C30.8 24.14 30.46 23.8 29.9 23.8H28.52V22.88C28.52 22.16 28.1 21.74 27.38 21.74H27.34C26.64 21.74 26.2 22.16 26.2 22.88V24.8C25.46 24.02 24.32 23.56 23.06 23.56C21.4 23.56 19.42 24.24 18.54 26.36C18.44 26.6 18.38 26.88 18.38 27.2C18.38 28.12 18.9 28.7 19.8 28.7ZM29.7512 25.64H30.2913C31.2513 25.64 31.5513 26.26 31.5513 27.3V36.02C31.5513 36.74 31.9913 37.18 32.6913 37.18H32.7313C33.4513 37.18 33.8713 36.74 33.8713 36.02V25.64H35.2513C35.7913 25.64 36.1713 25.3 36.1713 24.74V24.7C36.1713 24.14 35.7913 23.8 35.2513 23.8H33.8713V22.76C33.8713 22.12 33.4913 21.74 32.8313 21.74H32.7713C32.1113 21.74 31.7313 22.12 31.7313 22.76V23.24C31.7313 24.34 32.1113 25.22 32.1113 25.22L32.0113 25.26C31.5913 24.32 31.2313 23.8 30.3113 23.8H29.7512C29.2112 23.8 28.8312 24.14 28.8312 24.7V24.74C28.8312 25.3 29.2112 25.64 29.7512 25.64ZM35.1028 25.64H43.3628V27.66C43.3628 29.34 43.5028 30.54 43.6428 31.3L43.5828 31.32C42.5228 29.44 40.8228 28.58 38.9428 28.58C36.9828 28.58 35.8228 29.7 35.8228 31.16C35.8228 32.22 36.5228 32.84 37.4428 32.84C38.3228 32.84 38.8828 32.28 38.8828 31.44C38.8828 31.12 38.7628 30.82 38.5828 30.58C38.7028 30.58 38.8428 30.56 38.9828 30.56C41.1228 30.56 42.7028 32.68 43.4428 36.04C43.6228 36.78 43.9628 37.12 44.6428 37.12C45.3228 37.12 45.6828 36.72 45.6828 36.02V25.64H47.0628C47.6228 25.64 47.9428 25.3 47.9428 24.74V24.7C47.9428 24.14 47.6228 23.8 47.0628 23.8H35.1028C34.5428 23.8 34.2028 24.14 34.2028 24.7V24.74C34.2028 25.3 34.5428 25.64 35.1028 25.64Z" fill="white"/>
<defs>
<linearGradient id="paint0_linear_158_2082" x1="0" y1="0" x2="46.7077" y2="105.278" gradientUnits="userSpaceOnUse">
<stop stop-color="#B79FD5"/>
<stop offset="0.953125" stop-color="#362337"/>
</linearGradient>
<linearGradient id="paint1_linear_158_2082" x1="75.5" y1="68.5" x2="147.578" y2="5.08563" gradientUnits="userSpaceOnUse">
<stop stop-color="white"/>
<stop offset="1" stop-color="white" stop-opacity="0"/>
</linearGradient>
<clipPath id="clip0_158_2082">
<rect width="142" height="63" rx="10" fill="white"/>
</clipPath>
</defs>
</svg>
