<svg width="142" height="63" viewBox="0 0 142 63" fill="none" xmlns="http://www.w3.org/2000/svg">
<g clip-path="url(#clip0_158_2085)">
<rect width="142" height="63" rx="10" fill="url(#paint0_linear_158_2085)"/>
<path d="M79 63.5C79 63.5 85.2797 15.9946 101 38C116.72 60.0054 123 58.9946 129 42C136.417 20.9925 163.758 39.0806 166.5 24" stroke="url(#paint1_linear_158_2085)" stroke-width="4" stroke-linecap="round" stroke-linejoin="round"/>
</g>
<path d="M16.938 24.93V24.966C16.938 25.47 17.244 25.776 17.748 25.776H18.324C18.612 26.064 19.242 26.748 19.818 27.522C19.368 27.936 19.116 28.512 19.116 29.178C19.116 30.132 19.728 30.69 20.574 30.69C21.42 30.69 21.906 30.024 21.906 29.052C21.906 28.872 21.888 28.674 21.852 28.458H21.942C23.004 28.458 23.562 29.088 23.562 30.096C23.562 31.68 22.41 32.202 21.114 32.202C20.484 32.202 20.25 32.094 19.89 32.094C19.296 32.094 18.936 32.544 18.936 33.138C18.936 33.588 19.152 33.876 19.512 34.074L24.012 36.54C24.264 36.684 24.498 36.756 24.786 36.756C25.29 36.756 25.614 36.324 25.614 35.838C25.614 35.388 25.398 35.19 25.002 34.974L23.958 34.38C22.932 33.804 22.302 33.588 22.302 33.588V33.516C24.57 33.21 25.542 31.788 25.542 30.078C25.542 28.062 24.03 26.73 22.05 26.73C21.798 26.73 21.564 26.766 21.33 26.802C21.168 26.442 20.97 26.082 20.754 25.776H26.064C26.568 25.776 26.874 25.47 26.874 24.966V24.93C26.874 24.426 26.568 24.12 26.064 24.12H25.596C25.632 23.85 25.686 23.472 25.686 23.202C25.686 21.456 24.912 20.43 23.076 20.43C22.572 20.43 22.014 20.502 21.456 20.502C20.682 20.502 20.286 20.322 20.286 19.548C20.286 18.882 19.962 18.522 19.296 18.522C18.576 18.522 18.288 19.008 18.288 19.674C18.288 21.366 19.26 22.176 20.952 22.176C21.726 22.176 21.996 22.104 22.554 22.104C23.436 22.104 23.76 22.482 23.76 23.382C23.76 23.544 23.724 23.868 23.688 24.12H17.748C17.244 24.12 16.938 24.426 16.938 24.93ZM25.147 24.93V24.966C25.147 25.47 25.453 25.776 25.957 25.776H27.703C27.703 26.478 27.919 26.73 28.657 27.18C29.449 27.666 30.367 28.512 30.943 29.88C30.367 30.852 29.989 31.896 29.251 31.896C28.801 31.896 28.531 31.626 28.207 31.122C27.973 30.762 27.721 30.636 27.397 30.636C26.893 30.636 26.443 31.014 26.443 31.554C26.443 31.806 26.515 32.04 26.641 32.256C27.271 33.336 28.315 33.732 29.287 33.732C32.185 33.732 32.095 30.114 33.463 30.114C33.913 30.114 34.165 30.402 34.165 31.14V35.172C34.165 35.784 34.525 36.162 35.137 36.162H35.173C35.785 36.162 36.127 35.784 36.127 35.172V25.776H37.369C37.873 25.776 38.161 25.47 38.161 24.966V24.93C38.161 24.426 37.873 24.12 37.369 24.12H25.957C25.453 24.12 25.147 24.426 25.147 24.93ZM29.845 25.776H34.165V28.53C34.075 28.44 33.733 28.242 33.193 28.242C32.815 28.242 32.491 28.332 32.221 28.476C31.555 27.252 30.799 26.442 29.845 25.776ZM36.4321 24.966C36.4321 25.47 36.7381 25.776 37.2601 25.776H47.1961V27.558C46.8721 27.252 46.4041 27.072 45.9361 27.072C45.2881 27.072 44.4961 27.36 43.9741 28.242C43.4701 27.558 42.5341 27.072 41.4901 27.072C39.6901 27.072 38.1421 28.206 38.1421 30.618C38.1421 32.886 39.6721 34.182 41.4721 34.182C42.7861 34.182 43.4701 33.498 43.4701 32.67C43.4701 31.86 42.9121 31.32 42.1381 31.32C41.4721 31.32 41.0221 31.734 40.8961 32.31C40.4101 32.058 40.1041 31.518 40.1041 30.636C40.1041 29.412 40.6981 28.782 41.5801 28.782C42.3361 28.782 42.8041 29.178 43.0381 30.024C43.2001 30.492 43.3801 30.888 44.0821 30.888C44.7301 30.888 44.9101 30.528 45.0541 30.042C45.2161 29.25 45.5041 28.782 46.1161 28.782C46.7281 28.782 47.1421 29.304 47.1961 30.564V35.154C47.1961 35.784 47.5741 36.162 48.2041 36.162H48.2401C48.8521 36.162 49.2301 35.784 49.2301 35.154V25.776H50.4541C50.9581 25.776 51.2641 25.47 51.2641 24.966V24.93C51.2641 24.426 50.9581 24.12 50.4541 24.12H37.2601C36.7381 24.12 36.4321 24.426 36.4321 24.93V24.966ZM50.3378 25.776H50.8238C51.6878 25.776 51.9578 26.334 51.9578 27.27V35.118C51.9578 35.766 52.3538 36.162 52.9838 36.162H53.0198C53.6678 36.162 54.0458 35.766 54.0458 35.118V25.776H55.2878C55.7738 25.776 56.1158 25.47 56.1158 24.966V24.93C56.1158 24.426 55.7738 24.12 55.2878 24.12H54.0458V23.184C54.0458 22.608 53.7038 22.266 53.1098 22.266H53.0558C52.4618 22.266 52.1198 22.608 52.1198 23.184V23.616C52.1198 24.606 52.4618 25.398 52.4618 25.398L52.3718 25.434C51.9938 24.588 51.6698 24.12 50.8418 24.12H50.3378C49.8518 24.12 49.5098 24.426 49.5098 24.93V24.966C49.5098 25.47 49.8518 25.776 50.3378 25.776ZM55.1542 25.776H56.7743V35.154C56.7743 35.784 57.1703 36.18 57.8003 36.18H57.8363C58.4843 36.18 58.8623 35.784 58.8623 35.154V25.776H60.1043C60.5903 25.776 60.8963 25.47 60.8963 24.966V24.93C60.8963 24.426 60.5903 24.12 60.1043 24.12H58.8623V22.68C58.8623 21.222 59.7263 20.574 61.2923 20.574C62.6063 20.574 63.9383 20.988 65.9003 22.104C66.0803 22.212 66.2603 22.266 66.4403 22.266C66.7463 22.266 67.0163 22.104 67.1603 21.78C67.4663 21.132 67.1603 20.772 66.6383 20.502C64.6943 19.404 62.9123 18.756 61.0943 18.756C58.5743 18.756 56.7743 19.872 56.7743 22.68V24.12H55.1542C54.6502 24.12 54.3442 24.426 54.3442 24.93V24.966C54.3442 25.47 54.6502 25.776 55.1542 25.776ZM59.1607 24.93V24.966C59.1607 25.47 59.4667 25.776 59.9707 25.776H60.7807C60.7807 26.568 61.2127 26.784 61.6087 26.91C62.7967 27.288 63.6427 27.99 63.6427 29.052C63.6427 29.25 63.6247 29.484 63.5347 29.7C63.2827 29.628 63.0307 29.592 62.7967 29.574H62.6887C61.6087 29.574 60.9067 30.222 60.9067 31.212C60.9067 32.238 61.7167 32.706 62.7967 32.706C63.4627 32.706 64.0207 32.454 64.4527 32.058C65.4427 32.544 66.4147 33.372 67.2427 34.506V35.172C67.2427 35.784 67.6027 36.162 68.2147 36.162H68.2507C68.8447 36.162 69.1867 35.784 69.1867 35.172V25.776H70.4287C70.9147 25.776 71.2207 25.47 71.2207 24.966V24.93C71.2207 24.426 70.9147 24.12 70.4287 24.12H59.9707C59.4667 24.12 59.1607 24.426 59.1607 24.93ZM63.3727 25.776H67.2427V28.926C67.2427 30.42 67.3327 31.428 67.4047 32.04L67.3507 32.058C66.8467 31.464 66.1447 30.906 65.3887 30.474C65.4967 30.078 65.5507 29.682 65.5507 29.286C65.5507 27.648 64.6687 26.514 63.3727 25.776ZM69.4966 24.966C69.4966 25.47 69.8026 25.776 70.3066 25.776H76.6066V26.874C75.0046 27.144 73.4026 27.846 71.7826 29.088C71.3866 29.394 71.1346 29.826 71.1346 30.438C71.1346 30.996 71.3686 31.428 71.8366 31.716L76.6066 34.668V35.154C76.6066 35.784 77.0026 36.18 77.6326 36.18H77.6686C78.3166 36.18 78.6946 35.784 78.6946 35.154V28.53C80.2786 28.656 81.3946 29.61 81.3946 30.798V30.888C81.2506 30.852 81.1066 30.816 80.9446 30.816C80.1886 30.816 79.6666 31.302 79.6666 32.112C79.6666 33.012 80.3326 33.444 81.1246 33.444C82.3486 33.444 83.1766 32.418 83.1766 30.798C83.1766 28.476 81.2866 26.856 78.6946 26.73V25.776H83.6446C84.1486 25.776 84.4366 25.47 84.4366 24.966V24.93C84.4366 24.426 84.1486 24.12 83.6446 24.12H70.3066C69.8026 24.12 69.4966 24.426 69.4966 24.93V24.966ZM76.6066 28.746V32.526L73.2226 30.402C74.3026 29.574 75.4726 29.034 76.6066 28.746ZM90.7235 28.53C91.1915 28.53 91.5515 28.314 92.0195 28.314C92.5955 28.314 92.9915 28.566 92.9915 29.142C92.9915 29.718 92.5775 30.528 91.5155 31.464C91.2815 31.698 91.1555 31.932 91.1555 32.202C91.1555 32.742 91.6595 33.174 92.1815 33.174C92.4875 33.174 92.7395 33.012 92.9735 32.814C94.5035 31.518 94.9535 30.132 94.9535 29.052C94.9535 27.558 93.8555 26.622 92.3615 26.622C92.2355 26.622 92.0375 26.64 91.8215 26.676L91.7855 26.604C92.2175 26.028 93.0095 25.74 93.7655 25.74C95.4215 25.74 96.4835 26.892 96.4835 29.034V35.154C96.4835 35.784 96.8795 36.18 97.5095 36.18H97.5455C98.1935 36.18 98.5715 35.784 98.5715 35.154V25.776H99.8135C100.318 25.776 100.624 25.47 100.624 24.966V24.93C100.624 24.426 100.318 24.12 99.8135 24.12H98.5715V23.292C98.5715 22.644 98.1935 22.266 97.5455 22.266H97.5095C96.8795 22.266 96.4835 22.644 96.4835 23.292V25.02C95.8175 24.318 94.7915 23.904 93.6575 23.904C92.1635 23.904 90.3815 24.516 89.5895 26.424C89.4995 26.64 89.4455 26.892 89.4455 27.18C89.4455 28.008 89.9135 28.53 90.7235 28.53ZM99.6796 25.776H100.166C101.03 25.776 101.3 26.334 101.3 27.27V35.118C101.3 35.766 101.696 36.162 102.326 36.162H102.362C103.01 36.162 103.388 35.766 103.388 35.118V25.776H104.63C105.116 25.776 105.458 25.47 105.458 24.966V24.93C105.458 24.426 105.116 24.12 104.63 24.12H103.388V23.184C103.388 22.608 103.046 22.266 102.452 22.266H102.398C101.804 22.266 101.462 22.608 101.462 23.184V23.616C101.462 24.606 101.804 25.398 101.804 25.398L101.714 25.434C101.336 24.588 101.012 24.12 100.184 24.12H99.6796C99.1936 24.12 98.8516 24.426 98.8516 24.93V24.966C98.8516 25.47 99.1936 25.776 99.6796 25.776ZM104.496 25.776H111.93V27.594C111.93 29.106 112.056 30.186 112.182 30.87L112.128 30.888C111.174 29.196 109.644 28.422 107.952 28.422C106.188 28.422 105.144 29.43 105.144 30.744C105.144 31.698 105.774 32.256 106.602 32.256C107.394 32.256 107.898 31.752 107.898 30.996C107.898 30.708 107.79 30.438 107.628 30.222C107.736 30.222 107.862 30.204 107.988 30.204C109.914 30.204 111.336 32.112 112.002 35.136C112.164 35.802 112.47 36.108 113.082 36.108C113.694 36.108 114.018 35.748 114.018 35.118V25.776H115.26C115.764 25.776 116.052 25.47 116.052 24.966V24.93C116.052 24.426 115.764 24.12 115.26 24.12H104.496C103.992 24.12 103.686 24.426 103.686 24.93V24.966C103.686 25.47 103.992 25.776 104.496 25.776Z" fill="white"/>
<defs>
<linearGradient id="paint0_linear_158_2085" x1="0" y1="0" x2="46.7077" y2="105.278" gradientUnits="userSpaceOnUse">
<stop stop-color="#00B9E7"/>
<stop offset="0.953125" stop-color="#1B3FBC"/>
</linearGradient>
<linearGradient id="paint1_linear_158_2085" x1="75.5" y1="68.5" x2="147.578" y2="5.08563" gradientUnits="userSpaceOnUse">
<stop stop-color="white"/>
<stop offset="1" stop-color="white" stop-opacity="0"/>
</linearGradient>
<clipPath id="clip0_158_2085">
<rect width="142" height="63" rx="10" fill="white"/>
</clipPath>
</defs>
</svg>
