<svg width="142" height="63" viewBox="0 0 142 63" fill="none" xmlns="http://www.w3.org/2000/svg">
<g clip-path="url(#clip0_158_2079)">
<rect width="142" height="63" rx="10" fill="url(#paint0_linear_158_2079)"/>
<path opacity="0.2" d="M79 63.5C79 63.5 85.2797 15.9946 101 38C116.72 60.0054 123 58.9946 129 42C136.417 20.9925 163.758 39.0806 166.5 24" stroke="url(#paint1_linear_158_2079)" stroke-width="4" stroke-linecap="round" stroke-linejoin="round"/>
</g>
<path d="M19.62 28.53C20.088 28.53 20.448 28.314 20.916 28.314C21.492 28.314 21.888 28.566 21.888 29.142C21.888 29.718 21.474 30.528 20.412 31.464C20.178 31.698 20.052 31.932 20.052 32.202C20.052 32.742 20.556 33.174 21.078 33.174C21.384 33.174 21.636 33.012 21.87 32.814C23.4 31.518 23.85 30.132 23.85 29.052C23.85 27.558 22.752 26.622 21.258 26.622C21.132 26.622 20.934 26.64 20.718 26.676L20.682 26.604C21.114 26.028 21.906 25.74 22.662 25.74C24.318 25.74 25.38 26.892 25.38 29.034V35.154C25.38 35.784 25.776 36.18 26.406 36.18H26.442C27.09 36.18 27.468 35.784 27.468 35.154V25.776H28.71C29.214 25.776 29.52 25.47 29.52 24.966V24.93C29.52 24.426 29.214 24.12 28.71 24.12H27.468V23.292C27.468 22.644 27.09 22.266 26.442 22.266H26.406C25.776 22.266 25.38 22.644 25.38 23.292V25.02C24.714 24.318 23.688 23.904 22.554 23.904C21.06 23.904 19.278 24.516 18.486 26.424C18.396 26.64 18.342 26.892 18.342 27.18C18.342 28.008 18.81 28.53 19.62 28.53ZM28.5761 25.776H34.1741C33.6341 26.442 32.8781 27.594 32.8781 29.016C32.8781 30.636 34.0301 31.464 35.7041 31.464C36.3341 31.464 37.0181 31.32 37.6301 31.05C37.7561 31.356 37.7921 31.644 37.7921 31.896C37.7921 32.958 37.1441 34.056 35.3621 34.056C32.8781 34.056 31.5461 32.04 31.3661 29.178C31.3301 28.602 31.0061 28.278 30.4481 28.278C29.8001 28.278 29.4221 28.692 29.4581 29.376C29.7281 33.03 31.5641 35.856 35.3621 35.856C38.6021 35.856 39.6641 33.75 39.6641 31.86C39.6641 30.996 39.2681 29.196 38.1521 29.196C37.5761 29.196 36.9461 29.682 35.9741 29.682C35.2181 29.682 34.8941 29.376 34.8941 28.8C34.8941 27.9 35.7401 26.586 36.6761 25.776H36.7301C37.4141 27.954 39.2861 29.016 41.5001 29.016C41.2481 29.502 40.8701 30.618 40.8701 33.102V35.64C40.8701 36.216 41.2301 36.576 41.8061 36.576H41.8421C42.4181 36.576 42.7601 36.216 42.7601 35.64V33.156C42.7601 29.97 43.4621 29.52 43.4621 28.602C43.4621 27.9 43.0121 27.324 42.2741 27.324C41.9321 27.324 41.7341 27.36 41.3741 27.36C40.2041 27.342 39.2141 26.928 38.8181 25.776H44.1101C44.6141 25.776 44.9201 25.47 44.9201 24.966V24.93C44.9201 24.426 44.6141 24.12 44.1101 24.12H28.5761C28.0721 24.12 27.7661 24.426 27.7661 24.93V24.966C27.7661 25.47 28.0721 25.776 28.5761 25.776ZM43.1997 24.966C43.1997 25.47 43.5057 25.776 44.0277 25.776H53.9637V27.558C53.6397 27.252 53.1717 27.072 52.7037 27.072C52.0557 27.072 51.2637 27.36 50.7417 28.242C50.2377 27.558 49.3017 27.072 48.2577 27.072C46.4577 27.072 44.9097 28.206 44.9097 30.618C44.9097 32.886 46.4397 34.182 48.2397 34.182C49.5537 34.182 50.2377 33.498 50.2377 32.67C50.2377 31.86 49.6797 31.32 48.9057 31.32C48.2397 31.32 47.7897 31.734 47.6637 32.31C47.1777 32.058 46.8717 31.518 46.8717 30.636C46.8717 29.412 47.4657 28.782 48.3477 28.782C49.1037 28.782 49.5717 29.178 49.8057 30.024C49.9677 30.492 50.1477 30.888 50.8497 30.888C51.4977 30.888 51.6777 30.528 51.8217 30.042C51.9837 29.25 52.2717 28.782 52.8837 28.782C53.4957 28.782 53.9097 29.304 53.9637 30.564V35.154C53.9637 35.784 54.3417 36.162 54.9717 36.162H55.0077C55.6197 36.162 55.9977 35.784 55.9977 35.154V25.776H57.2217C57.7257 25.776 58.0317 25.47 58.0317 24.966V24.93C58.0317 24.426 57.7257 24.12 57.2217 24.12H44.0277C43.5057 24.12 43.1997 24.426 43.1997 24.93V24.966Z" fill="white"/>
<defs>
<linearGradient id="paint0_linear_158_2079" x1="0" y1="0" x2="46.7077" y2="105.278" gradientUnits="userSpaceOnUse">
<stop stop-color="#3EA72B"/>
<stop offset="1" stop-color="#C2F0BA"/>
</linearGradient>
<linearGradient id="paint1_linear_158_2079" x1="75.5" y1="68.5" x2="147.578" y2="5.08563" gradientUnits="userSpaceOnUse">
<stop stop-color="white"/>
<stop offset="1" stop-color="white" stop-opacity="0"/>
</linearGradient>
<clipPath id="clip0_158_2079">
<rect width="142" height="63" rx="10" fill="white"/>
</clipPath>
</defs>
</svg>
