<svg width="142" height="63" viewBox="0 0 142 63" fill="none" xmlns="http://www.w3.org/2000/svg">
<g clip-path="url(#clip0_158_2082)">
<rect width="142" height="63" rx="10" fill="url(#paint0_linear_158_2082)"/>
<path d="M79 63.5C79 63.5 85.2797 15.9946 101 38C116.72 60.0054 123 58.9946 129 42C136.417 20.9925 163.758 39.0806 166.5 24" stroke="url(#paint1_linear_158_2082)" stroke-width="4" stroke-linecap="round" stroke-linejoin="round"/>
</g>
<path d="M16.938 24.966C16.938 25.47 17.244 25.776 17.748 25.776H18.216C18.504 26.064 19.134 26.73 19.692 27.504C19.242 27.918 18.99 28.494 18.99 29.178C18.99 30.132 19.53 30.69 20.412 30.69C21.384 30.69 21.798 30.024 21.798 29.052C21.798 28.872 21.78 28.674 21.744 28.458H21.834C22.914 28.458 23.436 29.088 23.436 30.096C23.436 31.68 22.374 32.202 21.186 32.202C20.376 32.202 20.124 32.094 19.764 32.094C19.17 32.094 18.828 32.544 18.828 33.138C18.828 33.588 19.044 33.876 19.404 34.074L23.886 36.54C24.156 36.666 24.39 36.756 24.66 36.756C25.182 36.756 25.506 36.342 25.506 35.856C25.506 35.406 25.272 35.19 24.894 34.974L23.832 34.38C22.824 33.822 22.194 33.588 22.194 33.588V33.516C24.552 33.21 25.434 31.788 25.434 30.078C25.434 28.062 24.03 26.73 21.924 26.73C21.672 26.73 21.438 26.748 21.222 26.784C21.042 26.424 20.844 26.082 20.628 25.776H25.956C26.46 25.776 26.766 25.47 26.766 24.966V24.93C26.766 24.426 26.46 24.12 25.956 24.12H17.748C17.244 24.12 16.938 24.426 16.938 24.93V24.966ZM25.8515 25.776H26.3375C27.2015 25.776 27.4715 26.334 27.4715 27.27V35.118C27.4715 35.766 27.8675 36.162 28.4975 36.162H28.5335C29.1815 36.162 29.5595 35.766 29.5595 35.118V25.776H30.8015C31.2875 25.776 31.6295 25.47 31.6295 24.966V24.93C31.6295 24.426 31.2875 24.12 30.8015 24.12H29.5595V23.184C29.5595 22.608 29.2175 22.266 28.6235 22.266H28.5695C27.9755 22.266 27.6335 22.608 27.6335 23.184V23.616C27.6335 24.606 27.9755 25.398 27.9755 25.398L27.8855 25.434C27.5075 24.588 27.1835 24.12 26.3555 24.12H25.8515C25.3655 24.12 25.0235 24.426 25.0235 24.93V24.966C25.0235 25.47 25.3655 25.776 25.8515 25.776ZM29.8579 24.93V24.966C29.8579 25.47 30.1639 25.776 30.6679 25.776H31.4779C31.4779 26.568 31.9099 26.784 32.3059 26.91C33.4939 27.288 34.3399 27.99 34.3399 29.052C34.3399 29.25 34.3219 29.484 34.2319 29.7C33.9799 29.628 33.7279 29.592 33.4939 29.574H33.3859C32.3059 29.574 31.6039 30.222 31.6039 31.212C31.6039 32.238 32.4139 32.706 33.4939 32.706C34.1599 32.706 34.7179 32.454 35.1499 32.058C36.1399 32.544 37.1119 33.372 37.9399 34.506V35.172C37.9399 35.784 38.2999 36.162 38.9119 36.162H38.9479C39.5419 36.162 39.8839 35.784 39.8839 35.172V25.776H41.1259C41.6119 25.776 41.9179 25.47 41.9179 24.966V24.93C41.9179 24.426 41.6119 24.12 41.1259 24.12H30.6679C30.1639 24.12 29.8579 24.426 29.8579 24.93ZM34.0699 25.776H37.9399V28.926C37.9399 30.42 38.0299 31.428 38.1019 32.04L38.0479 32.058C37.5439 31.464 36.8419 30.906 36.0859 30.474C36.1939 30.078 36.2479 29.682 36.2479 29.286C36.2479 27.648 35.3659 26.514 34.0699 25.776Z" fill="white"/>
<defs>
<linearGradient id="paint0_linear_158_2082" x1="0" y1="0" x2="46.7077" y2="105.278" gradientUnits="userSpaceOnUse">
<stop stop-color="#B79FD5"/>
<stop offset="0.953125" stop-color="#362337"/>
</linearGradient>
<linearGradient id="paint1_linear_158_2082" x1="75.5" y1="68.5" x2="147.578" y2="5.08563" gradientUnits="userSpaceOnUse">
<stop stop-color="white"/>
<stop offset="1" stop-color="white" stop-opacity="0"/>
</linearGradient>
<clipPath id="clip0_158_2082">
<rect width="142" height="63" rx="10" fill="white"/>
</clipPath>
</defs>
</svg>
