<svg width="142" height="63" viewBox="0 0 142 63" fill="none" xmlns="http://www.w3.org/2000/svg">
<g clip-path="url(#clip0_158_2079)">
<rect width="142" height="63" rx="10" fill="url(#paint0_linear_158_2079)"/>
<path opacity="0.2" d="M79 63.5C79 63.5 85.2797 15.9946 101 38C116.72 60.0054 123 58.9946 129 42C136.417 20.9925 163.758 39.0806 166.5 24" stroke="url(#paint1_linear_158_2079)" stroke-width="4" stroke-linecap="round" stroke-linejoin="round"/>
</g>
<path d="M19.8 28.7C20.32 28.7 20.72 28.46 21.24 28.46C21.88 28.46 22.32 28.74 22.32 29.38C22.32 30.02 21.86 30.92 20.68 31.96C20.42 32.22 20.28 32.48 20.28 32.78C20.28 33.38 20.84 33.86 21.42 33.86C21.76 33.86 22.04 33.68 22.3 33.46C24 32.02 24.5 30.48 24.5 29.28C24.5 27.62 23.28 26.58 21.62 26.58C21.48 26.58 21.26 26.6 21.02 26.64L20.98 26.56C21.46 25.92 22.34 25.6 23.18 25.6C25.02 25.6 26.2 26.88 26.2 29.26V36.06C26.2 36.76 26.64 37.2 27.34 37.2H27.38C28.1 37.2 28.52 36.76 28.52 36.06V25.64H29.9C30.46 25.64 30.8 25.3 30.8 24.74V24.7C30.8 24.14 30.46 23.8 29.9 23.8H28.52V22.88C28.52 22.16 28.1 21.74 27.38 21.74H27.34C26.64 21.74 26.2 22.16 26.2 22.88V24.8C25.46 24.02 24.32 23.56 23.06 23.56C21.4 23.56 19.42 24.24 18.54 26.36C18.44 26.6 18.38 26.88 18.38 27.2C18.38 28.12 18.9 28.7 19.8 28.7ZM29.7512 25.64H35.9713C35.3713 26.38 34.5313 27.66 34.5313 29.24C34.5313 31.04 35.8113 31.96 37.6713 31.96C38.3713 31.96 39.1313 31.8 39.8113 31.5C39.9513 31.84 39.9913 32.16 39.9913 32.44C39.9913 33.62 39.2713 34.84 37.2913 34.84C34.5313 34.84 33.0513 32.6 32.8513 29.42C32.8113 28.78 32.4513 28.42 31.8313 28.42C31.1113 28.42 30.6912 28.88 30.7313 29.64C31.0313 33.7 33.0713 36.84 37.2913 36.84C40.8913 36.84 42.0713 34.5 42.0713 32.4C42.0713 31.44 41.6313 29.44 40.3913 29.44C39.7513 29.44 39.0513 29.98 37.9713 29.98C37.1313 29.98 36.7713 29.64 36.7713 29C36.7713 28 37.7113 26.54 38.7513 25.64H38.8113C39.5713 28.06 41.6513 29.24 44.1113 29.24C43.8313 29.78 43.4113 31.02 43.4113 33.78V36.6C43.4113 37.24 43.8113 37.64 44.4513 37.64H44.4913C45.1313 37.64 45.5113 37.24 45.5113 36.6V33.84C45.5113 30.3 46.2913 29.8 46.2913 28.78C46.2913 28 45.7913 27.36 44.9713 27.36C44.5913 27.36 44.3713 27.4 43.9713 27.4C42.6713 27.38 41.5713 26.92 41.1313 25.64H47.0113C47.5713 25.64 47.9113 25.3 47.9113 24.74V24.7C47.9113 24.14 47.5713 23.8 47.0113 23.8H29.7512C29.1912 23.8 28.8512 24.14 28.8512 24.7V24.74C28.8512 25.3 29.1912 25.64 29.7512 25.64ZM45.9997 24.74C45.9997 25.3 46.3397 25.64 46.9197 25.64H57.9597V27.62C57.5997 27.28 57.0797 27.08 56.5597 27.08C55.8397 27.08 54.9597 27.4 54.3797 28.38C53.8197 27.62 52.7797 27.08 51.6197 27.08C49.6197 27.08 47.8997 28.34 47.8997 31.02C47.8997 33.54 49.5997 34.98 51.5997 34.98C53.0597 34.98 53.8197 34.22 53.8197 33.3C53.8197 32.4 53.1997 31.8 52.3397 31.8C51.5997 31.8 51.0997 32.26 50.9597 32.9C50.4197 32.62 50.0797 32.02 50.0797 31.04C50.0797 29.68 50.7397 28.98 51.7197 28.98C52.5597 28.98 53.0797 29.42 53.3397 30.36C53.5197 30.88 53.7197 31.32 54.4997 31.32C55.2197 31.32 55.4197 30.92 55.5797 30.38C55.7597 29.5 56.0797 28.98 56.7597 28.98C57.4397 28.98 57.8997 29.56 57.9597 30.96V36.06C57.9597 36.76 58.3797 37.18 59.0797 37.18H59.1197C59.7997 37.18 60.2197 36.76 60.2197 36.06V25.64H61.5797C62.1397 25.64 62.4797 25.3 62.4797 24.74V24.7C62.4797 24.14 62.1397 23.8 61.5797 23.8H46.9197C46.3397 23.8 45.9997 24.14 45.9997 24.7V24.74Z" fill="white"/>
<defs>
<linearGradient id="paint0_linear_158_2079" x1="0" y1="0" x2="46.7077" y2="105.278" gradientUnits="userSpaceOnUse">
<stop stop-color="#3EA72B"/>
<stop offset="1" stop-color="#C2F0BA"/>
</linearGradient>
<linearGradient id="paint1_linear_158_2079" x1="75.5" y1="68.5" x2="147.578" y2="5.08563" gradientUnits="userSpaceOnUse">
<stop stop-color="white"/>
<stop offset="1" stop-color="white" stop-opacity="0"/>
</linearGradient>
<clipPath id="clip0_158_2079">
<rect width="142" height="63" rx="10" fill="white"/>
</clipPath>
</defs>
</svg>
