<svg width="142" height="63" viewBox="0 0 142 63" fill="none" xmlns="http://www.w3.org/2000/svg">
<g clip-path="url(#clip0_158_2085)">
<rect width="142" height="63" rx="10" fill="url(#paint0_linear_158_2085)"/>
<path d="M79 63.5C79 63.5 85.2797 15.9946 101 38C116.72 60.0054 123 58.9946 129 42C136.417 20.9925 163.758 39.0806 166.5 24" stroke="url(#paint1_linear_158_2085)" stroke-width="4" stroke-linecap="round" stroke-linejoin="round"/>
</g>
<path d="M17.72 25.64H19.52V36.06C19.52 36.76 19.96 37.2 20.66 37.2H20.7C21.42 37.2 21.84 36.76 21.84 36.06V25.64H23.22C23.76 25.64 24.1 25.3 24.1 24.74V24.7C24.1 24.14 23.76 23.8 23.22 23.8H21.84V22.2C21.84 20.58 22.8 19.86 24.54 19.86C26 19.86 27.48 20.32 29.66 21.56C29.86 21.68 30.06 21.74 30.26 21.74C30.6 21.74 30.9 21.56 31.06 21.2C31.4 20.48 31.06 20.08 30.48 19.78C28.32 18.56 26.34 17.84 24.32 17.84C21.52 17.84 19.52 19.08 19.52 22.2V23.8H17.72C17.16 23.8 16.82 24.14 16.82 24.7V24.74C16.82 25.3 17.16 25.64 17.72 25.64ZM23.8316 29.04C24.0716 33.86 26.6716 36.88 30.7116 36.88C34.5316 36.88 36.1316 34.32 36.1316 31.52C36.1316 30.38 35.6116 28.06 34.1316 28.06C33.3316 28.06 32.9516 28.64 32.3716 29.32C31.9516 29.82 31.5516 30.26 30.9316 30.26C30.4716 30.26 30.1716 30.06 30.0116 29.76C30.6916 29.62 31.1916 29.08 31.1916 28.36C31.1916 27.56 30.5516 26.92 29.6916 26.92C28.4116 26.92 27.8516 27.94 27.8516 29.12C27.8516 31 29.1716 32.2 30.8916 32.2C32.2316 32.2 33.1516 31.6 33.8716 30.52C33.9716 30.66 34.0916 31.02 34.0916 31.56C34.0916 32.98 33.3316 34.88 30.7116 34.88C28.1716 34.88 26.2316 33.06 25.9916 28.96C25.9516 28.26 25.5116 27.96 24.9116 27.96C24.3716 27.96 23.7916 28.32 23.8316 29.04ZM23.0716 25.64H36.6916C37.2516 25.64 37.5716 25.3 37.5716 24.74V24.7C37.5716 24.14 37.2516 23.8 36.6916 23.8H23.0716C22.5116 23.8 22.1716 24.14 22.1716 24.7V24.74C22.1716 25.3 22.5116 25.64 23.0716 25.64ZM36.5481 25.64H38.3481V36.06C38.3481 36.76 38.7881 37.2 39.4881 37.2H39.5281C40.2481 37.2 40.6681 36.76 40.6681 36.06V25.64H42.0481C42.5881 25.64 42.9281 25.3 42.9281 24.74V24.7C42.9281 24.14 42.5881 23.8 42.0481 23.8H40.6681V22.2C40.6681 20.58 41.6281 19.86 43.3681 19.86C44.8281 19.86 46.3081 20.32 48.4881 21.56C48.6881 21.68 48.8881 21.74 49.0881 21.74C49.4281 21.74 49.7281 21.56 49.8881 21.2C50.2281 20.48 49.8881 20.08 49.3081 19.78C47.1481 18.56 45.1681 17.84 43.1481 17.84C40.3481 17.84 38.3481 19.08 38.3481 22.2V23.8H36.5481C35.9881 23.8 35.6481 24.14 35.6481 24.7V24.74C35.6481 25.3 35.9881 25.64 36.5481 25.64ZM40.9997 24.74C40.9997 25.3 41.3397 25.64 41.8997 25.64H47.0397V29.34C47.0397 31 48.0797 31.86 49.6197 31.86C51.1597 31.86 52.1997 30.88 52.4597 30.66C52.5997 30.94 52.6997 31.28 52.6997 31.8C52.6997 33.44 51.8797 34.98 49.4397 34.98C46.4597 34.98 45.0797 32.66 44.8797 29.46C44.8397 28.8 44.4397 28.44 43.8397 28.44C43.3197 28.44 42.7997 28.76 42.7997 29.48C42.7997 32.86 44.7397 37.02 49.4197 37.02C53.3397 37.02 54.7997 34.38 54.7997 31.86C54.7997 30.3 54.2197 28.5 52.7597 28.5C51.8397 28.5 50.8997 29.7 49.9197 29.7C49.4797 29.7 49.2997 29.46 49.2997 28.9V25.64H55.2797C55.8397 25.64 56.1797 25.3 56.1797 24.74V24.7C56.1797 24.14 55.8397 23.8 55.2797 23.8H41.8997C41.3397 23.8 40.9997 24.14 40.9997 24.7V24.74ZM55.9614 29.26C56.2214 33.6 58.5814 37.02 62.8014 37.02C65.8614 37.02 67.3414 35.16 67.3414 33.2C67.3414 31.72 66.8814 30.94 66.0214 30.14C66.7614 29.4 67.1414 28.42 67.1414 27.4C67.1414 25.1 65.4814 23.68 62.9214 23.68C60.4414 23.68 58.8014 25.1 58.8014 27.1C58.8014 28.32 59.5014 29.16 60.6014 29.16C61.5614 29.16 62.1214 28.54 62.1214 27.74C62.1214 27.06 61.7014 26.5 61.0414 26.34C61.4014 25.84 62.1214 25.56 62.8814 25.56C64.1214 25.56 65.0214 26.2 65.0214 27.38C65.0214 28.04 64.7214 28.74 64.2814 29.18C64.1014 29.06 63.8414 29 63.5614 29C62.4614 29 61.8614 29.74 61.8614 30.7C61.8614 31.72 62.5814 32.3 63.5214 32.3C64.0214 32.3 64.5014 32.1 64.8014 31.7C65.1014 31.96 65.2614 32.34 65.2614 32.88C65.2614 33.8 64.7614 34.94 62.7814 34.94C60.2014 34.94 58.5014 33.08 58.1214 29.06C58.0614 28.42 57.7014 28.06 57.0614 28.08C56.3414 28.08 55.9014 28.52 55.9614 29.26Z" fill="white"/>
<defs>
<linearGradient id="paint0_linear_158_2085" x1="0" y1="0" x2="46.7077" y2="105.278" gradientUnits="userSpaceOnUse">
<stop stop-color="#00B9E7"/>
<stop offset="0.953125" stop-color="#1B3FBC"/>
</linearGradient>
<linearGradient id="paint1_linear_158_2085" x1="75.5" y1="68.5" x2="147.578" y2="5.08563" gradientUnits="userSpaceOnUse">
<stop stop-color="white"/>
<stop offset="1" stop-color="white" stop-opacity="0"/>
</linearGradient>
<clipPath id="clip0_158_2085">
<rect width="142" height="63" rx="10" fill="white"/>
</clipPath>
</defs>
</svg>
