<svg width="142" height="63" viewBox="0 0 142 63" fill="none" xmlns="http://www.w3.org/2000/svg">
<g clip-path="url(#clip0_158_2076)">
<rect width="142" height="63" rx="10" fill="url(#paint0_linear_158_2076)"/>
<path opacity="0.2" d="M79 63.5C79 63.5 85.2797 15.9946 101 38C116.72 60.0054 123 58.9946 129 42C136.417 20.9925 163.758 39.0806 166.5 24" stroke="url(#paint1_linear_158_2076)" stroke-width="4" stroke-linecap="round" stroke-linejoin="round"/>
</g>
<path d="M15.72 28.64H23.98V30.66C23.98 32.34 24.12 33.54 24.26 34.3L24.2 34.32C23.14 32.44 21.44 31.58 19.56 31.58C17.6 31.58 16.44 32.7 16.44 34.16C16.44 35.22 17.14 35.84 18.06 35.84C18.94 35.84 19.5 35.28 19.5 34.44C19.5 34.12 19.38 33.82 19.2 33.58C19.32 33.58 19.46 33.56 19.6 33.56C21.74 33.56 23.32 35.68 24.06 39.04C24.24 39.78 24.58 40.12 25.26 40.12C25.94 40.12 26.3 39.72 26.3 39.02V28.64H27.68C28.24 28.64 28.56 28.3 28.56 27.74V27.7C28.56 27.14 28.24 26.8 27.68 26.8H15.72C15.16 26.8 14.82 27.14 14.82 27.7V27.74C14.82 28.3 15.16 28.64 15.72 28.64ZM27.5364 28.64H28.0764C29.0364 28.64 29.3364 29.26 29.3364 30.3V39.02C29.3364 39.74 29.7764 40.18 30.4764 40.18H30.5164C31.2364 40.18 31.6564 39.74 31.6564 39.02V28.64H33.0364C33.5764 28.64 33.9564 28.3 33.9564 27.74V27.7C33.9564 27.14 33.5764 26.8 33.0364 26.8H31.6564V25.76C31.6564 25.12 31.2764 24.74 30.6164 24.74H30.5564C29.8964 24.74 29.5164 25.12 29.5164 25.76V26.24C29.5164 27.34 29.8964 28.22 29.8964 28.22L29.7964 28.26C29.3764 27.32 29.0164 26.8 28.0964 26.8H27.5364C26.9964 26.8 26.6164 27.14 26.6164 27.7V27.74C26.6164 28.3 26.9964 28.64 27.5364 28.64ZM36.208 32.82V32.9L35.068 33.46C34.568 33.7 34.328 34.14 34.328 34.72C34.328 35.38 34.668 35.74 35.188 35.94L41.468 38.48V39.06C41.468 39.76 41.888 40.18 42.588 40.18H42.628C43.308 40.18 43.708 39.76 43.708 39.06V28.64H45.088C45.648 28.64 45.988 28.3 45.988 27.74V27.7C45.988 27.14 45.648 26.8 45.088 26.8H42.188C41.608 26.8 41.388 27.06 41.388 27.6V30.16L39.728 31.04C39.168 31.34 38.688 31.58 37.948 31.58C37.008 31.58 36.308 31 36.308 29.98C36.308 29.08 36.788 28.64 37.428 28.52C37.408 28.6 37.408 28.66 37.408 28.74C37.408 29.6 38.028 30.14 38.868 30.14C39.788 30.14 40.308 29.5 40.308 28.7C40.308 27.44 39.128 26.6 37.508 26.6C35.608 26.6 34.048 27.76 34.048 29.92C34.048 31.26 34.768 32.34 36.208 32.82ZM37.248 34.6L41.468 32.4V36.32L37.248 34.6Z" fill="white"/>
<defs>
<linearGradient id="paint0_linear_158_2076" x1="0" y1="0" x2="46.7077" y2="105.278" gradientUnits="userSpaceOnUse">
<stop stop-color="#868CFF"/>
<stop offset="1" stop-color="#4318FF"/>
</linearGradient>
<linearGradient id="paint1_linear_158_2076" x1="75.5" y1="68.5" x2="147.578" y2="5.08563" gradientUnits="userSpaceOnUse">
<stop stop-color="white"/>
<stop offset="1" stop-color="white" stop-opacity="0"/>
</linearGradient>
<clipPath id="clip0_158_2076">
<rect width="142" height="63" rx="10" fill="white"/>
</clipPath>
</defs>
</svg>
