<svg width="150" height="150" viewBox="0 0 150 150" fill="none" xmlns="http://www.w3.org/2000/svg">
<rect width="150" height="150" fill="#252E39"/>
<path d="M60.6331 93.1641C60.6331 97.1768 56.4085 100.43 51.1972 100.43C45.9859 100.43 41.7614 97.1768 41.7614 93.1641C41.7614 89.1514 45.9859 85.8985 51.1972 85.8985C56.4085 85.8985 60.6331 89.1514 60.6331 93.1641Z" fill="#F2F2F2"/>
<path d="M94.6023 85.8985C94.6023 89.9112 90.3777 93.1641 85.1664 93.1641C79.9551 93.1641 75.7305 89.9112 75.7305 85.8985C75.7305 81.8858 79.9551 78.6329 85.1664 78.6329C90.3777 78.6329 94.6023 81.8858 94.6023 85.8985Z" fill="#F2F2F2"/>
<path fill-rule="evenodd" clip-rule="evenodd" d="M90.8279 85.8985V53.2032H94.6023V85.8985H90.8279ZM60.6331 56.836V93.1641H56.8588V56.836H60.6331Z" fill="#F2F2F2"/>
<path d="M56.8588 56.4908C56.8588 54.6245 58.3281 53.0618 60.2575 52.876L90.4523 49.9698C92.6743 49.7559 94.6023 51.4353 94.6023 53.5846V56.836L56.8588 60.4688V56.4908Z" fill="#F2F2F2"/>
</svg>
